<svg xmlns="http://www.w3.org/2000/svg" viewBox="0 0 100 100" preserveAspectRatio="xMidYMid" width="200" height="200" style="shape-rendering: auto; display: block; background: transparent;" xmlns:xlink="http://www.w3.org/1999/xlink"><g><g transform="rotate(0 50 50)">
  <rect fill="#712cf9" height="6" width="7" ry="3" rx="3.5" y="27" x="46.5">
    <animate repeatCount="indefinite" begin="-1.104417670682731s" dur="1.2048192771084336s" keyTimes="0;1" values="1;0" attributeName="opacity"></animate>
  </rect>
</g><g transform="rotate(30 50 50)">
  <rect fill="#5b1369" height="6" width="7" ry="3" rx="3.5" y="27" x="46.5">
    <animate repeatCount="indefinite" begin="-1.004016064257028s" dur="1.2048192771084336s" keyTimes="0;1" values="1;0" attributeName="opacity"></animate>
  </rect>
</g><g transform="rotate(60 50 50)">
  <rect fill="#712cf9" height="6" width="7" ry="3" rx="3.5" y="27" x="46.5">
    <animate repeatCount="indefinite" begin="-0.9036144578313252s" dur="1.2048192771084336s" keyTimes="0;1" values="1;0" attributeName="opacity"></animate>
  </rect>
</g><g transform="rotate(90 50 50)">
  <rect fill="#5b1369" height="6" width="7" ry="3" rx="3.5" y="27" x="46.5">
    <animate repeatCount="indefinite" begin="-0.8032128514056224s" dur="1.2048192771084336s" keyTimes="0;1" values="1;0" attributeName="opacity"></animate>
  </rect>
</g><g transform="rotate(120 50 50)">
  <rect fill="#712cf9" height="6" width="7" ry="3" rx="3.5" y="27" x="46.5">
    <animate repeatCount="indefinite" begin="-0.7028112449799196s" dur="1.2048192771084336s" keyTimes="0;1" values="1;0" attributeName="opacity"></animate>
  </rect>
</g><g transform="rotate(150 50 50)">
  <rect fill="#5b1369" height="6" width="7" ry="3" rx="3.5" y="27" x="46.5">
    <animate repeatCount="indefinite" begin="-0.6024096385542168s" dur="1.2048192771084336s" keyTimes="0;1" values="1;0" attributeName="opacity"></animate>
  </rect>
</g><g transform="rotate(180 50 50)">
  <rect fill="#712cf9" height="6" width="7" ry="3" rx="3.5" y="27" x="46.5">
    <animate repeatCount="indefinite" begin="-0.502008032128514s" dur="1.2048192771084336s" keyTimes="0;1" values="1;0" attributeName="opacity"></animate>
  </rect>
</g><g transform="rotate(210 50 50)">
  <rect fill="#5b1369" height="6" width="7" ry="3" rx="3.5" y="27" x="46.5">
    <animate repeatCount="indefinite" begin="-0.4016064257028112s" dur="1.2048192771084336s" keyTimes="0;1" values="1;0" attributeName="opacity"></animate>
  </rect>
</g><g transform="rotate(240 50 50)">
  <rect fill="#712cf9" height="6" width="7" ry="3" rx="3.5" y="27" x="46.5">
    <animate repeatCount="indefinite" begin="-0.3012048192771084s" dur="1.2048192771084336s" keyTimes="0;1" values="1;0" attributeName="opacity"></animate>
  </rect>
</g><g transform="rotate(270 50 50)">
  <rect fill="#5b1369" height="6" width="7" ry="3" rx="3.5" y="27" x="46.5">
    <animate repeatCount="indefinite" begin="-0.2008032128514056s" dur="1.2048192771084336s" keyTimes="0;1" values="1;0" attributeName="opacity"></animate>
  </rect>
</g><g transform="rotate(300 50 50)">
  <rect fill="#712cf9" height="6" width="7" ry="3" rx="3.5" y="27" x="46.5">
    <animate repeatCount="indefinite" begin="-0.1004016064257028s" dur="1.2048192771084336s" keyTimes="0;1" values="1;0" attributeName="opacity"></animate>
  </rect>
</g><g transform="rotate(330 50 50)">
  <rect fill="#5b1369" height="6" width="7" ry="3" rx="3.5" y="27" x="46.5">
    <animate repeatCount="indefinite" begin="0s" dur="1.2048192771084336s" keyTimes="0;1" values="1;0" attributeName="opacity"></animate>
  </rect>
</g><g></g></g><!-- [ldio] generated by https://loading.io --></svg>
